<svg xmlns="http://www.w3.org/2000/svg" viewBox="0 0 1920 1145" width="1920" height="1145">
    <clipPath id="a">
        <path fill="none" d="M0 0h1920v1145H0z"/>
    </clipPath>
    <linearGradient id="b" x1="277.4" x2="277.3" y1="957.2" y2="955.3" gradientTransform="matrix(1920 0 0 -882.94 -531563 845160.8)" gradientUnits="userSpaceOnUse">
        <stop offset="0" stop-color="#6852ed"/>
        <stop offset="1" stop-color="#b713fb"/>
    </linearGradient>
    <linearGradient id="c" x1="276.5" x2="276.5" y1="958.2" y2="957.2" gradientTransform="scale(219.56 -219.56) rotate(15 3791 -547.4)" gradientUnits="userSpaceOnUse">
        <stop offset="0" stop-color="#fccd05"/>
        <stop offset="1" stop-color="#fccd05" stop-opacity=".9"/>
    </linearGradient>
    <linearGradient id="d" x1="276.8" x2="276.8" y1="956.4" y2="955.4" gradientTransform="matrix(0 349.04 348.04 0 -332146.8 -95634.5)" gradientUnits="userSpaceOnUse">
        <stop offset="0" stop-color="#ef7171"/>
        <stop offset="1" stop-color="#ef7171" stop-opacity=".8"/>
    </linearGradient>
    <g clip-path="url(#a)">
        <path fill="url(#b)" d="M0-.8h1920v837s-466.8 46-946.8 46S0 836.1 0 836.1z"/>
        <path fill="#3f1abb" d="M924 323.6l586.6-492.3a315.8 315.8 0 0 1 406 483.9L1330 807.4a315.8 315.8 0 1 1-406-483.8z" opacity=".2" style="isolation:isolate"/>
        <circle cx="1458.4" cy="842.8" r="109.8" fill="url(#c)"/>
        <g opacity=".5">
            <path d="M241.6 768.4h289.2a6.4 6.4 0 0 1 6.4 6.3 6.4 6.4 0 0 1-6.4 6.4H241.6a6.4 6.4 0 0 1-6.4-6.4 6.4 6.4 0 0 1 6.4-6.4zM398.6 816.7h199.3a6.4 6.4 0 0 1 6.4 6.3 6.4 6.4 0 0 1-6.4 6.4H398.6a6.4 6.4 0 0 1-6.4-6.4 6.4 6.4 0 0 1 6.4-6.3zM255 816.7h124.1a6.4 6.4 0 0 1 6.4 6.3 6.4 6.4 0 0 1-6.4 6.4H255a6.4 6.4 0 0 1-6.4-6.4 6.4 6.4 0 0 1 6.4-6.3zM266.4 744.2H359a6.4 6.4 0 0 1 6.4 6.4 6.4 6.4 0 0 1-6.4 6.4h-92.6a6.4 6.4 0 0 1-6.4-6.4 6.4 6.4 0 0 1 6.4-6.4zM333.5 792.5h92.6a6.4 6.4 0 0 1 6.4 6.4 6.4 6.4 0 0 1-6.4 6.4h-92.6a6.4 6.4 0 0 1-6.4-6.4 6.4 6.4 0 0 1 6.4-6.4zM221.4 792.5H314a6.4 6.4 0 0 1 6.4 6.4 6.4 6.4 0 0 1-6.4 6.4h-92.6a6.4 6.4 0 0 1-6.3-6.4 6.4 6.4 0 0 1 6.3-6.4zM378.5 744.2H471a6.4 6.4 0 0 1 6.3 6.4 6.4 6.4 0 0 1-6.3 6.4h-92.6a6.4 6.4 0 0 1-6.4-6.4 6.4 6.4 0 0 1 6.4-6.4zM445.6 792.5h92.6a6.4 6.4 0 0 1 6.3 6.4 6.4 6.4 0 0 1-6.3 6.4h-92.6a6.4 6.4 0 0 1-6.4-6.4 6.4 6.4 0 0 1 6.4-6.4zM490.5 744.2h92.6a6.4 6.4 0 0 1 6.4 6.4 6.4 6.4 0 0 1-6.4 6.4h-92.6a6.4 6.4 0 0 1-6.4-6.4 6.4 6.4 0 0 1 6.4-6.4zM551 768.4H687a6.4 6.4 0 0 1 6.4 6.3 6.4 6.4 0 0 1-6.4 6.4H551a6.4 6.4 0 0 1-6.4-6.4 6.4 6.4 0 0 1 6.4-6.4zM557.6 792.5h92.6a6.4 6.4 0 0 1 6.4 6.4 6.4 6.4 0 0 1-6.4 6.4h-92.6a6.4 6.4 0 0 1-6.4-6.4 6.4 6.4 0 0 1 6.4-6.4z" opacity=".2" style="isolation:isolate" fill="#dedede"/>
        </g>
        <g opacity=".5">
            <path d="M246.7 669.3h289.2a6.4 6.4 0 0 1 6.4 6.4 6.4 6.4 0 0 1-6.4 6.4H246.7a6.4 6.4 0 0 1-6.4-6.4 6.4 6.4 0 0 1 6.4-6.4zM403.7 717.6H603a6.4 6.4 0 0 1 6.4 6.4 6.4 6.4 0 0 1-6.4 6.4H403.7a6.4 6.4 0 0 1-6.4-6.4 6.4 6.4 0 0 1 6.4-6.4zM260.1 717.6h124.1a6.4 6.4 0 0 1 6.4 6.4 6.4 6.4 0 0 1-6.4 6.4H260.1a6.4 6.4 0 0 1-6.4-6.4 6.4 6.4 0 0 1 6.4-6.4zM271.5 645.2h92.6a6.4 6.4 0 0 1 6.4 6.3 6.4 6.4 0 0 1-6.4 6.4h-92.6a6.4 6.4 0 0 1-6.4-6.4 6.4 6.4 0 0 1 6.4-6.3zM338.6 693.5h92.6a6.4 6.4 0 0 1 6.4 6.4 6.4 6.4 0 0 1-6.4 6.3h-92.6a6.4 6.4 0 0 1-6.4-6.3 6.4 6.4 0 0 1 6.4-6.4zM226.6 693.5h92.6a6.4 6.4 0 0 1 6.3 6.4 6.4 6.4 0 0 1-6.4 6.3h-92.6a6.4 6.4 0 0 1-6.3-6.3 6.4 6.4 0 0 1 6.4-6.4zM383.6 645.2h92.6a6.4 6.4 0 0 1 6.3 6.3 6.4 6.4 0 0 1-6.3 6.4h-92.6a6.4 6.4 0 0 1-6.4-6.4 6.4 6.4 0 0 1 6.4-6.3zM450.7 693.5h92.6a6.4 6.4 0 0 1 6.3 6.4 6.4 6.4 0 0 1-6.3 6.3h-92.6a6.4 6.4 0 0 1-6.4-6.3 6.4 6.4 0 0 1 6.4-6.4zM495.6 645.2h92.6a6.4 6.4 0 0 1 6.4 6.3 6.4 6.4 0 0 1-6.4 6.4h-92.6a6.4 6.4 0 0 1-6.4-6.4 6.4 6.4 0 0 1 6.4-6.3zM556 669.3h136.2a6.4 6.4 0 0 1 6.4 6.4 6.4 6.4 0 0 1-6.4 6.4H556a6.4 6.4 0 0 1-6.4-6.4 6.4 6.4 0 0 1 6.4-6.4zM562.7 693.5h92.6a6.4 6.4 0 0 1 6.4 6.4 6.4 6.4 0 0 1-6.4 6.3h-92.6a6.4 6.4 0 0 1-6.4-6.3 6.4 6.4 0 0 1 6.4-6.4z" opacity=".2" style="isolation:isolate" fill="#dedede"/>
        </g>
        <g opacity=".5">
            <path d="M241.6 871.5h289.2a6.4 6.4 0 0 1 6.4 6.3 6.4 6.4 0 0 1-6.4 6.4H241.6a6.4 6.4 0 0 1-6.4-6.4 6.4 6.4 0 0 1 6.4-6.3zM398.6 919.8h199.3a6.4 6.4 0 0 1 6.4 6.4 6.4 6.4 0 0 1-6.4 6.3H398.6a6.4 6.4 0 0 1-6.4-6.4 6.4 6.4 0 0 1 6.4-6.3zM255 919.8h124.1a6.4 6.4 0 0 1 6.4 6.4 6.4 6.4 0 0 1-6.4 6.3H255a6.4 6.4 0 0 1-6.4-6.4 6.4 6.4 0 0 1 6.4-6.3zM266.4 847.3H359a6.4 6.4 0 0 1 6.4 6.4 6.4 6.4 0 0 1-6.4 6.4h-92.6a6.4 6.4 0 0 1-6.4-6.4 6.4 6.4 0 0 1 6.4-6.4zM333.5 895.6h92.6a6.4 6.4 0 0 1 6.4 6.4 6.4 6.4 0 0 1-6.4 6.4h-92.6a6.4 6.4 0 0 1-6.4-6.4 6.4 6.4 0 0 1 6.4-6.4zM221.4 895.6H314a6.4 6.4 0 0 1 6.4 6.4 6.4 6.4 0 0 1-6.4 6.4h-92.6a6.4 6.4 0 0 1-6.3-6.4 6.4 6.4 0 0 1 6.3-6.4zM378.5 847.3H471a6.4 6.4 0 0 1 6.3 6.4 6.4 6.4 0 0 1-6.3 6.4h-92.6a6.4 6.4 0 0 1-6.4-6.4 6.4 6.4 0 0 1 6.4-6.4zM445.6 895.6h92.6a6.4 6.4 0 0 1 6.3 6.4 6.4 6.4 0 0 1-6.3 6.4h-92.6a6.4 6.4 0 0 1-6.4-6.4 6.4 6.4 0 0 1 6.4-6.4zM490.5 847.3h92.6a6.4 6.4 0 0 1 6.4 6.4 6.4 6.4 0 0 1-6.4 6.4h-92.6a6.4 6.4 0 0 1-6.4-6.4 6.4 6.4 0 0 1 6.4-6.4zM551 871.5H687a6.4 6.4 0 0 1 6.4 6.3 6.4 6.4 0 0 1-6.4 6.4H551a6.4 6.4 0 0 1-6.4-6.4 6.4 6.4 0 0 1 6.4-6.3zM557.6 895.6h92.6a6.4 6.4 0 0 1 6.4 6.4 6.4 6.4 0 0 1-6.4 6.4h-92.6a6.4 6.4 0 0 1-6.4-6.4 6.4 6.4 0 0 1 6.4-6.4z" opacity=".2" style="isolation:isolate" fill="#dedede"/>
        </g>
        <ellipse cx="536.1" cy="970.2" fill="url(#d)" rx="174" ry="174.5" transform="rotate(-15 536 970.1)"/>
    </g>
</svg>
