<?xml version="1.0" encoding="UTF-8" standalone="no"?>
<svg
   xmlns:dc="http://purl.org/dc/elements/1.1/"
   xmlns:cc="http://creativecommons.org/ns#"
   xmlns:rdf="http://www.w3.org/1999/02/22-rdf-syntax-ns#"
   xmlns:svg="http://www.w3.org/2000/svg"
   xmlns="http://www.w3.org/2000/svg"
   xmlns:sodipodi="http://sodipodi.sourceforge.net/DTD/sodipodi-0.dtd"
   xmlns:inkscape="http://www.inkscape.org/namespaces/inkscape"
   height="84.733131mm"
   width="347.68521mm"
   version="1.1"
   viewBox="0 0 1232.015 300.22368"
   id="svg28"
   sodipodi:docname="vikings-logo_rev1_optimized-web.svg"
   inkscape:version="0.92.0 r15299">
  <metadata
     id="metadata34">
    <rdf:RDF>
      <cc:Work
         rdf:about="">
        <dc:format>image/svg+xml</dc:format>
        <dc:type
           rdf:resource="http://purl.org/dc/dcmitype/StillImage" />
        <dc:title></dc:title>
      </cc:Work>
    </rdf:RDF>
  </metadata>
  <defs
     id="defs32" />
  <sodipodi:namedview
     pagecolor="#ffffff"
     bordercolor="#666666"
     borderopacity="1"
     objecttolerance="10"
     gridtolerance="10"
     guidetolerance="10"
     inkscape:pageopacity="0"
     inkscape:pageshadow="2"
     inkscape:window-width="1916"
     inkscape:window-height="931"
     id="namedview30"
     showgrid="false"
     fit-margin-top="0"
     fit-margin-left="0"
     fit-margin-right="0"
     fit-margin-bottom="0"
     inkscape:zoom="0.27013828"
     inkscape:cx="9.1478581"
     inkscape:cy="160.09894"
     inkscape:window-x="0"
     inkscape:window-y="18"
     inkscape:window-maximized="0"
     inkscape:current-layer="svg28" />
  <g
     transform="translate(612,-580.76316)"
     id="g26">
    <g
       transform="matrix(0.5,0,0,0.5,191.2,-1596)"
       id="g24">
      <path
         style="color:#000000;text-indent:0;text-decoration:none;text-decoration-line:none;text-decoration-style:solid;text-decoration-color:#000000;text-transform:none;white-space:normal;isolation:auto;mix-blend-mode:normal;solid-color:#000000;color-rendering:auto;image-rendering:auto;shape-rendering:auto"
         d="m -1203,4354 -96.92,177.9 -233.1,422.1 h 489.6 l -75.75,-138.7 -30.77,15.38 2.706,4.972 45.75,84.05 h -373.4 l 202.9,-367.5 0.027,0.012 2.608,-4.79 2.653,-4.803 -0.027,-0.014 63.63,-116.8 186.7,342.3 h -355.5 v 34.26 h 413.5 l -244.8,-448.4 z m -158.6,0.034 -244.8,448.4 h 151.1 v -34.26 h -5.467 -87.59 l 186.7,-342.3 42.16,77.66 30.57,-16.98 -72.73,-132.5 z m 110.6,219.7 -4.788,2.66 -25.76,14.31 90.43,163.5 30.55,-16.97 -90.42,-163.5 z"
         id="path2"
         inkscape:connector-curvature="0" />
      <g
         style="fill:#333333"
         transform="translate(77.01,5570)"
         id="g22">
        <circle
           r="46.349998"
           style="fill:#bb1e10"
           cx="-701.70001"
           cy="-1170"
           id="circle4" />
        <path
           style="fill:#000000"
           d="m -972.3,-754.5 h 66.25 l 139.4,-346.3 h -93.75 l -78.75,229.4 -80,-229.4 h -92.5 l 139.4,346.3 z"
           id="path6"
           inkscape:connector-curvature="0" />
        <path
           style="fill:#000000"
           d="m -743.2,-754.5 h 83.12 v -346.3 h -83.12 z"
           id="path8"
           inkscape:connector-curvature="0" />
        <path
           style="fill:#000000"
           d="m -613.1,-754.5 h 83.12 v -147.9 l 118.1,147.9 h 111.9 l -143.8,-176.9 123.8,-169.4 h -99.38 l -110.6,149.1 v -264.8 h -83.12 z"
           id="path10"
           inkscape:connector-curvature="0" />
        <path
           style="fill:#000000"
           d="m -287.6,-754.5 h 83.12 v -346.3 h -83.12 z"
           id="path12"
           inkscape:connector-curvature="0" />
        <path
           style="fill:#000000"
           d="m -162.4,-754.5 h 83.13 v -163.1 c 0,-46.25 3.125,-66.25 13.75,-83.13 13.12,-20.62 35,-31.88 61.25,-31.88 21.25,0 38.75,7.5 50,21.88 11.25,15 16.25,40.63 16.25,86.88 v 169.4 h 83.13 v -185.6 c 0,-61.88 -6.25,-91.88 -25,-118.8 -22.5,-32.5 -60,-50 -108.1,-50 -39.38,0 -66.88,11.88 -97.5,41.25 v -33.12 h -76.88 v 346.3 z"
           id="path14"
           inkscape:connector-curvature="0" />
        <path
           style="fill:#000000"
           d="m 438,-1101 v 43.75 c -23.99,-35 -59.1,-51.88 -105.9,-51.88 -91.88,0 -159.8,76.25 -159.8,178.8 0,106.9 66.71,183.8 159.2,183.8 45.65,0 76.08,-15.62 106.5,-53.75 -2.926,74.38 -32.77,110.6 -90.71,110.6 -36.28,0 -58.52,-10 -81.34,-36.88 h -88.36 c 26.33,69.38 87.19,110 166.8,110 58.52,0 104.8,-21.88 135.2,-63.12 22.82,-31.88 32.77,-74.38 32.77,-140.6 v -280.6 h -74.32 z m -97.14,68.12 c 55.59,0 93.63,43.13 93.63,106.3 0,62.5 -36.87,103.8 -92.46,103.8 -55.59,0 -91.29,-40.62 -91.29,-103.8 0,-63.75 35.7,-106.3 90.12,-106.3 z"
           id="path16"
           inkscape:connector-curvature="0" />
        <path
           style="fill:#000000"
           d="m 529.9,-864.5 c 3.75,33.75 9.375,51.25 23.12,70 22.5,30 61.88,48.12 103.8,48.12 69.38,0 123.8,-51.88 123.8,-118.1 0,-30 -11.25,-55 -32.5,-71.88 -13.12,-11.25 -33.75,-20 -63.75,-29.38 -33.75,-10.62 -33.75,-10.62 -41.88,-14.38 -11.25,-5 -16.88,-13.12 -16.88,-23.13 0,-16.88 13.75,-29.38 31.88,-29.38 17.5,0 28.75,9.375 32.5,27.5 h 81.25 c -1.25,-29.38 -8.125,-46.88 -25,-65.62 -21.88,-24.38 -54.38,-38.12 -88.75,-38.12 -64.38,0 -115,46.25 -115,105.6 0,50.63 27.5,79.38 96.25,102.5 31.88,10.62 34.38,11.88 43.12,17.5 10,6.25 15.62,15.62 15.62,26.88 0,19.38 -16.25,33.75 -37.5,33.75 -24.38,0 -38.12,-12.5 -46.25,-41.88 h -83.75 z"
           id="path18"
           inkscape:connector-curvature="0" />
        <circle
           r="46.349998"
           style="fill:#bb1e10"
           cx="-246"
           cy="-1170"
           id="circle20" />
      </g>
    </g>
  </g>
</svg>
