<?xml version="1.0" encoding="utf-8"?><svg version="1.1" id="svg" xmlns="http://www.w3.org/2000/svg" xmlns:xlink="http://www.w3.org/1999/xlink" x="0px" y="0px" width="1200px" height="160px" viewBox="0 0 1200 160"><title>Disroot.org SVG Logo - free.arinco.org</title><a xlink:href="http://free.arinco.org/mail/disroot/"><path id="disroot" fill-rule="evenodd" clip-rule="evenodd" fill="#800000" d="M218.06,15.772c0-1.141,0-2.283,0-3.425 c1.381,1.188,4.691,2.665,5.139,0C229.3,13.775,219.008,21.395,218.06,15.772z M483.532,22.625 c-22.238,0.244-50.607,21.399-35.968,46.243c0.799,1.354,4.328,0.005,6.853,1.713c4.044,2.737,15.972,14.173,20.552,20.553 c2.602,3.624,2.729,9.425,5.139,11.988c3.941,4.193,15.806,9.701,18.84,10.278c7.854,1.492,25.14,0.521,25.691-11.991 c5.923,1.357,7.23-1.903,10.276-3.424c10.925-24.721-9.734-43.865-27.404-54.808c-1.415-4.841,2.414-4.438,1.713-8.564 C500.26,31.017,490.8,27.917,483.532,22.625z M521.212,85.994c-35.365,20.588-99.536-36.729-44.53-54.808 C492.555,48.427,518.19,55.903,521.212,85.994z M637.677,118.535c11.642-19.832,11.607-37.715,8.564-66.795 c-7.935-4.098-10.682-16.479-23.979-10.277c-10.336-19.678-40.458-18.701-54.807-5.138c-8.9,8.414-16.35,35.036-8.563,39.394 c-0.41,2.444-2.82,2.888-3.426,5.138c5.666,7.464,15.088,11.174,17.127,22.265c14.574,3.695,27.811,8.728,34.255,20.554 c10.41,0.012,26.2-2.652,22.266-6.853C631.102,118.262,633.707,119.082,637.677,118.535z M622.263,108.26 c-29.03-0.657-39.028-20.346-49.669-39.393c4.472-8.089,6.827-18.292,13.702-23.978c12.248,5.046,32.817,6.488,39.393,17.127 C633.521,74.687,631.978,96.1,622.263,108.26z M1106.964,34.613c6.529-0.323,11.271-2.432,11.988-8.563 C1115.796,29.744,1106.89,27.687,1106.964,34.613z M96.457,43.177c-4.126,0.7-3.722-3.129-8.563-1.714 C85.252,46.634,96.755,45.969,96.457,43.177z M776.409,104.834c3.117,11.154,9.524,19.021,20.551,22.267 c1.608-8.101,7.461-11.951,8.564-20.554c-5.418-3.114-4.216-7.749-8.564-8.563C790.264,102.607,787.535,108.569,776.409,104.834z M1144.645,15.772c7.059,0.291,3.217-7.656,10.275-3.425c-5.007,6.084-11.616,5.205-17.127,0 c-8.435,6.752-10.492,6.466-17.128,10.277c16.16,8.481,38.108-10.428,51.382-6.852c0.869-6.409-4.021-11.667-10.275-15.414 c-1.713,0-3.426,0-5.139,0C1159.476,12.335,1142.797,4.792,1144.645,15.772z M874.033,36.325c2.715-2.562,1.263-7.005-1.713-8.563 c-1.29,7.84-7.31,0.167-3.426,0c-24.514,1.057-42.287,25.222-39.391,47.957c0.723,5.683,7.572,8.97,5.136,15.414 c6.336,3.37,12.063,7.35,17.128,11.988c-2.506,3.975-5.428-3.345-5.137,3.426c5.399-0.26,3.331,6.945,6.85,8.563 c10.909,1.694,10.333,5.285,23.979,5.14c10.027,11.49,29.841-7.622,35.968-13.702c6.4,1.083,9.808,2.696,11.988-3.426 c-7.475,0.04-0.288-2.949,3.426-1.713c1.694-6.831-5.118-5.157-3.426-11.988c2.466-3.791,4.179,2.157,5.139-1.713 c-4.142-5.563,0.76-20.172-5.139-23.978c-21-0.125-15.003-27.243-35.968-27.404c-2.352,3.904,4.416,6.438,0,6.852 C886.266,37.024,878.414,37.139,874.033,36.325z M891.16,72.293c6.853-0.576,11.208-10.562,17.128-8.563 c5.822,4.454,7.99,12.563,6.852,23.978c-13.934,17.102-57.743,14.875-68.509-3.426c-2.717-27.709,7.542-42.91,34.254-37.679 C887.512,53.223,891.354,63.426,891.16,72.293z M1175.473,38.038c-7.941,1.437-10.596-0.747-13.701,3.425 c-8.648-2.922,6.796,2.688,8.563,5.14c-21.966,0.261-32.613,2.315-53.095,1.713c-3.465,11.89-7.045,10.694-3.424,23.978 c4.812,0.669,10.592-4.503,6.85,1.713c3.368,0.513,3.396-2.313,5.14-3.426c3.128,12.088,26.17-2.563,27.402,8.563 c-19.717,6.209-60.714,19.978-63.37-6.851c-1.564-15.805,17.606-26.739,13.701-37.68c-2.178,4.101-6.252,6.306-5.139,13.703 c-5.271-1.276-3.291,4.7-8.563,3.425c-7.426,17.863-14.563,56.317,15.414,59.946c4.103-6.924,11.268-0.823,17.127,3.423 c6.895-4.825,10.583-2.21,20.554-3.423c2.303,3.977,2.835,9.725,5.139,13.701c15.207-1.351,23.077-10.036,29.115-20.554 c-12.372-22.347,19.619-31.88,22.267-54.807c-2.469-3.79-4.18,2.156-5.139-1.712c-1.707-8.56,5.317-8.384,5.139-15.416 C1190.706,27.725,1181.312,34.793,1175.473,38.038z M128.998,22.625c8.867,21.972,16.348,47.154,23.979,70.221 c1.879,5.681-0.041,15.343,8.563,17.128c0.33-6.236,4.627-19.636,13.702-17.128c-2.936-13.028-11.714-27.492-10.277-39.393 c-2.563-0.292-6.321,0.611-6.851-1.713c5.081-7.33-9.564-21.602-10.276-34.255C136.478,17.843,139.19,21.631,128.998,22.625z M212.922,17.485c-7.908,4.037-14.811,2.168-34.254,3.426c13.628,36.53,61.46,42.389,73.647,75.36 c-7.622,4.456-12.635,0.979-23.979,1.713c0.529-4.004,3.353-7.077,0-10.277c-6.265-1.127-6.571,3.707-11.988,3.426 c-2.665,15.712-3.597,12.281-6.852,27.402c13.595,2.764,21.198-1.563,32.543,0c9.521-5.322,12.165-17.52,25.69-18.84 c12.098-41.036-33.43-51.506-53.094-71.933c10.811,1.177,17.854,6.124,29.117,6.851c-0.04,4.035,2.949,5.042,1.711,10.277 c3.841-0.727,5.46-3.676,8.564-5.138c-2.264,0.827-0.104-7.853,1.713-8.565c7.547,0.205,7.017,2.37,11.989,0 c0-2.282,0-4.567,0-6.851c-8.28-11.176-21.338-7.757-27.404-10.276c-0.383,3.239,1.931,3.779,1.713,6.852 c-9.186,2.333-10.492-3.211-15.416-5.139C222.253,20.234,218.291,22.317,212.922,17.485z M200.933,36.325 c1.519-3.583,9.563,0.551,8.563,5.138C204.119,42.273,204.972,36.854,200.933,36.325z M653.093,32.9 c10.89,7.378,31.705,4.833,46.243,8.563c-0.021,4.807-4.674-4.077-3.426,3.427c1.001,11.443,5.406,24.004,6.852,39.392 c1.531,16.313-5.969,54.436,15.414,51.382c2.445-7.454-5.854-7.875-1.713-11.988c3.535-3.882,10.975,4.522,11.988-3.426 c-0.987-26.283-15.67-59.381-3.424-77.072c23.415,2.308,40.042,6.076,63.37,3.426c-0.793-10.498,8.943-10.468,13.701-15.416 c-4.056-8.323-13.662-4.164-20.553-5.137c-40.497-5.725-80.65-10.073-126.74-11.99C659.61,23.626,649.716,25.416,653.093,32.9z M0.544,50.027c5.021,9.577,20.034,3.049,29.117,1.713c8.049,14.787,17.435,28.237,27.404,41.105 c-4.513,3.479-5.269,10.717-8.564,15.414c18.851,5.864,39.639-9.078,53.095-13.701c6.81-3.465,6.056-14.496,13.701-17.128 c2.802-7.811-8.317-5.412-3.426-10.276c4.992,10.073,6.891-7.135,11.989-1.712c-4.209-9.493-11.046-16.358-20.553-20.553 c-5.541-5.339-1.389,8.675-10.275,5.138c-0.274-5.076-12.498-2.715-6.852-8.564c-6.535-1.184-8.248,6.965-13.701,1.714 c-4.914-1.478-4.736-8.081-11.99-10.277c-12.895-3.902-34.307,0.939-46.244,3.425c-6.19,2.373-6.272,10.854-13.701,11.99 C0.544,48.886,0.544,49.456,0.544,50.027z M63.916,55.166c15.341,5.212,35.042,6.062,37.68,23.978 c-3.523,6.184-11.664,7.748-18.84,10.276C82.788,77.288,67.34,69.192,63.916,55.166z M382.482,22.625 c-35.539-9.167-95.787-16.854-89.063,18.838c19.366-1.888,46.586-4.479,68.509,0c8.079,1.651,14.893,5.538,20.554,6.853 c-14.959,9.033-44.074,21.738-56.521,8.563c-6.2,2.601,2.372,11.101-5.138,13.701c-0.269-2.016,0.294-4.862-1.713-5.138 c-0.882,7.987-2.819,11.1-5.138,20.552c20.503,10.366-2.201,50.303,11.988,63.372c5.648-4.058,4.844-14.568,15.414-13.703 c0.709-15.752-7.663-30.164,0-39.392c25.826,6.605,51.052,3.542,73.647,13.702c3.368,0.511,3.396-2.313,5.139-3.427 c7.826,4.163,12.49,11.489,23.978,11.988c0.376-11.751,12.78-5.661,13.702-13.701c-3.244-7.577-13.567-7.751-20.553-10.275 c-15.215-5.496-30.756-9.162-47.956-13.702c-7.154-1.889-18.783-3.234-22.266-10.276c10.132-0.146,10.409-10.143,22.266-8.563 c4.465-10.925,16.149-19.956,13.702-32.542C398.11,30.913,391.133,24.854,382.482,22.625z M937.405,34.613 c20.209,7.405,52.453,7.593,71.933,13.703c6.565,2.058,16.312,4.833,18.84,10.275c-23.517,5.505-45.833,23.568-61.657,1.713 c-6.055,3.753,1.104,10.136-5.139,13.702c-2.264-0.021-1.564-3.003-3.426-3.426c-2.052,6.763-0.811,11.757-1.713,22.266 c21.229,9.157-5.141,62.412,17.13,66.796c0.952-4.755-0.168-11.584,6.849-10.275c0.633-16.618-2.53-29.438-3.426-44.532 c22.701-10.568,40.714,13.66,61.66,6.853c8.115,4.443,20.332,4.785,27.402,10.275c0.27-2.016-0.293-4.862,1.713-5.14 c3.512,4.296,10.224,7.282,15.414,5.14c-3.814-11.988-13.78-14.932-23.977-20.554c-4.939-2.722-11.031-5.388-15.414-6.85 c-11.105-3.702-24.574-1.099-32.544-10.277c1.401-6.591,10.119-5.865,11.99-11.988c5.406,0.838,6.048-3.087,11.988-1.713 c2.731-4.69,6.395-8.451,8.565-13.701c-2.09-0.194-4.057-0.513-3.426-3.426c6.447-1.111,13.738-8.116,10.275-13.701 C1022.786,28.597,960.804,3.161,937.405,34.613z"/></a></svg>