<svg width="110" height="130" viewBox="0 0 110 130" fill="none" xmlns="http://www.w3.org/2000/svg">
    <g filter="url(#filter0_d)">
    <path d="M33.5618 110.649C39.3957 113.765 46.0117 115.56 52.9999 115.56C59.9882 115.56 66.6042 113.765 72.4381 110.649V104.453H33.5618V110.649Z" fill="#D29B6E"/>
    <path d="M90.4873 62.7993H89.0989V32.2536H16.9007V62.799H15.5123C11.6782 62.799 8.57007 65.9071 8.57007 69.7412C8.57007 73.5752 11.6782 76.6834 15.5123 76.6834H17.0409C18.4633 95.3184 34.0003 110.006 52.9998 110.006C71.9993 110.006 87.5364 95.3184 88.9587 76.6834H90.4873C94.3214 76.6834 97.4295 73.5752 97.4295 69.7412C97.4295 65.9075 94.3217 62.7993 90.4873 62.7993Z" fill="#F5B97D"/>
    <path d="M77.9918 37.8074V32.2536H16.9008V62.799H15.9087C12.2772 62.799 8.96816 65.4116 8.6064 69.0248C8.19011 73.1803 11.4422 76.683 15.5127 76.683H17.0414C18.4637 95.3181 34.0007 110.005 53.0002 110.005C54.8998 110.005 56.752 109.82 58.5713 109.537C41.2695 106.867 28.0083 91.9552 28.0083 73.9058V54.4677C28.0083 48.3333 32.9812 43.3601 39.1158 43.3601H72.4381C75.5052 43.3611 77.9918 40.8749 77.9918 37.8074Z" fill="#E3AA75"/>
    <path d="M36.3386 71.3711C34.8039 71.3711 33.5618 70.1276 33.5618 68.5942V65.8173C33.5618 64.2839 34.8039 63.0405 36.3386 63.0405C37.8734 63.0405 39.1155 64.2839 39.1155 65.8173V68.5942C39.1155 70.128 37.8738 71.3711 36.3386 71.3711Z" fill="#5A4650"/>
    <path d="M69.6612 71.3711C68.1264 71.3711 66.8843 70.1276 66.8843 68.5942V65.8173C66.8843 64.2839 68.1264 63.0405 69.6612 63.0405C71.1959 63.0405 72.438 64.2839 72.438 65.8173V68.5942C72.438 70.128 71.1959 71.3711 69.6612 71.3711Z" fill="#5A4650"/>
    <path d="M39.1154 60.0224H33.5617C32.0269 60.0224 30.7848 58.779 30.7848 57.2456C30.7848 55.7122 32.0269 54.4687 33.5617 54.4687H39.1154C40.6502 54.4687 41.8923 55.7122 41.8923 57.2456C41.8923 58.779 40.6505 60.0224 39.1154 60.0224Z" fill="#6E5A64"/>
    <path d="M72.4379 60.0224H66.8842C65.3494 60.0224 64.1073 58.779 64.1073 57.2455C64.1073 55.7121 65.3494 54.4687 66.8842 54.4687H72.4379C73.9727 54.4687 75.2148 55.7121 75.2148 57.2455C75.2148 58.779 73.9727 60.0224 72.4379 60.0224Z" fill="#6E5A64"/>
    <path d="M42.0214 81.0803C41.1472 81.0803 40.4975 81.8794 40.6428 82.7414C41.5448 88.0879 46.7338 92.1878 52.9999 92.1878C59.266 92.1878 64.455 88.0879 65.357 82.7414C65.5023 81.8794 64.8526 81.0803 63.9784 81.0803H42.0214Z" fill="white"/>
    <path d="M84.1126 26.7002H21.8872C13.4085 26.7002 6.90971 34.2331 8.15283 42.62L11.347 64.1715L17.5816 63.4012C20.3643 63.0574 22.4545 60.6934 22.4545 57.8895V43.3611C22.4545 40.2936 24.9411 37.8074 28.0083 37.8074H77.9918C81.059 37.8074 83.5455 40.2936 83.5455 43.3611V57.8891C83.5455 60.6931 85.6358 63.0574 88.4185 63.4009L94.6531 64.1711L97.8472 42.6197C99.09 34.2328 92.5912 26.7002 84.1126 26.7002Z" fill="#5A4650"/>
    <path d="M90.4027 7.95309C89.8689 6.29943 87.9483 5.49664 86.4308 6.34312C83.5381 7.95749 78.1605 10.0386 69.6608 10.0386H41.892C31.1568 10.0386 22.4539 18.7412 22.4539 29.4768C22.4539 34.0777 26.1836 37.8074 30.7845 37.8074H75.2142C85.6497 37.8074 96.0845 25.5537 90.4027 7.95309Z" fill="#64505A"/>
    <path d="M38.9844 19.7191C39.0264 23.6564 42.5136 26.7002 46.451 26.7002H84.1126C86.1107 26.7002 87.9924 27.1311 89.6951 27.8807C92.2248 22.7459 92.9713 15.902 90.3994 7.94256C89.8676 6.29703 87.9483 5.49594 86.4386 6.33937C83.5476 7.95442 78.1679 10.0393 69.6608 10.0393H41.892C41.7186 10.1412 41.5222 10.2564 41.3487 10.3584C39.8472 13.1153 38.9834 16.2691 38.9834 19.6296C38.9837 19.6591 38.9841 19.6889 38.9844 19.7191Z" fill="#6E5A64"/>
    </g>
    <defs>
    <filter id="filter0_d" x="0" y="0" width="110" height="129.56" filterUnits="userSpaceOnUse" color-interpolation-filters="sRGB">
    <feFlood flood-opacity="0" result="BackgroundImageFix"/>
    <feColorMatrix in="SourceAlpha" type="matrix" values="0 0 0 0 0 0 0 0 0 0 0 0 0 0 0 0 0 0 127 0"/>
    <feOffset dx="2" dy="4"/>
    <feGaussianBlur stdDeviation="5"/>
    <feColorMatrix type="matrix" values="0 0 0 0 0 0 0 0 0 0 0 0 0 0 0 0 0 0 0.4 0"/>
    <feBlend mode="normal" in2="BackgroundImageFix" result="effect1_dropShadow"/>
    <feBlend mode="normal" in="SourceGraphic" in2="effect1_dropShadow" result="shape"/>
    </filter>
    </defs>
    </svg>